{
    "asset" : {
        "generator" : "Khronos glTF Blender I/O v3.2.40",
        "version" : "2.0"
    },
    "extensionsUsed" : [
        "KHR_materials_clearcoat",
        "KHR_materials_transmission",
        "KHR_lights_punctual"
    ],
    "extensionsRequired" : [
        "KHR_lights_punctual"
    ],
    "extensions" : {
        "KHR_lights_punctual" : {
            "lights" : [
                {
                    "color" : [
                        0.9999964237213135,
                        0.9214164614677429,
                        0.28529122471809387
                    ],
                    "intensity" : 1974,
                    "type" : "point",
                    "name" : "\u70b9\u5149.004"
                },
                {
                    "color" : [
                        0.9999964237213135,
                        0.9214164614677429,
                        0.28529122471809387
                    ],
                    "intensity" : 4000,
                    "type" : "point",
                    "name" : "\u70b9\u5149.005"
                }
            ]
        }
    },
    "scene" : 0,
    "scenes" : [
        {
            "name" : "Scene",
            "nodes" : [
                0,
                1,
                2
            ]
        }
    ],
    "nodes" : [
        {
            "mesh" : 0,
            "name" : "\u7403\u4f53.009",
            "scale" : [
                0.9873013496398926,
                0.9873013496398926,
                0.8851838111877441
            ],
            "translation" : [
                1.3356332778930664,
                0.5182209014892578,
                1.1679362058639526
            ]
        },
        {
            "extensions" : {
                "KHR_lights_punctual" : {
                    "light" : 0
                }
            },
            "name" : "\u70b9\u5149.002",
            "rotation" : [
                -0.7071068286895752,
                0,
                0,
                0.7071068286895752
            ],
            "translation" : [
                3.766425609588623,
                4.1594014167785645,
                -7.194144248962402
            ]
        },
        {
            "extensions" : {
                "KHR_lights_punctual" : {
                    "light" : 1
                }
            },
            "name" : "\u70b9\u5149.003",
            "rotation" : [
                -0.7071068286895752,
                0,
                0,
                0.7071068286895752
            ],
            "translation" : [
                4.8854851722717285,
                4.078638553619385,
                4.381864547729492
            ]
        }
    ],
    "materials" : [
        {
            "doubleSided" : true,
            "name" : "\u6750\u8d28.012",
            "pbrMetallicRoughness" : {
                "baseColorFactor" : [
                    0.800000011920929,
                    0.800000011920929,
                    0.800000011920929,
                    1
                ],
                "metallicFactor" : 0,
                "roughnessFactor" : 0.5
            }
        },
        {
            "doubleSided" : true,
            "name" : "\u6750\u8d28.010",
            "pbrMetallicRoughness" : {
                "baseColorFactor" : [
                    0.005604598671197891,
                    0.005604598671197891,
                    0.005604598671197891,
                    1
                ],
                "metallicFactor" : 0,
                "roughnessFactor" : 0.5
            }
        },
        {
            "doubleSided" : true,
            "extensions" : {
                "KHR_materials_clearcoat" : {
                    "clearcoatFactor" : 0.0595238097012043,
                    "clearcoatRoughnessFactor" : 0.029999999329447746
                }
            },
            "name" : "\u6750\u8d28.014",
            "pbrMetallicRoughness" : {
                "baseColorFactor" : [
                    0.1094617024064064,
                    0.3277781903743744,
                    0,
                    1
                ],
                "metallicFactor" : 0,
                "roughnessFactor" : 0.5
            }
        },
        {
            "doubleSided" : true,
            "name" : "\u6750\u8d28.013",
            "pbrMetallicRoughness" : {
                "baseColorFactor" : [
                    0.23301470279693604,
                    0.20943737030029297,
                    0.22249554097652435,
                    1
                ],
                "metallicFactor" : 0,
                "roughnessFactor" : 0.5
            }
        },
        {
            "doubleSided" : true,
            "extensions" : {
                "KHR_materials_transmission" : {
                    "transmissionFactor" : 0.1190476194024086
                }
            },
            "name" : "\u6750\u8d28.011",
            "pbrMetallicRoughness" : {
                "baseColorFactor" : [
                    0.01850022003054619,
                    0.31398868560791016,
                    0.24620138108730316,
                    1
                ],
                "metallicFactor" : 0,
                "roughnessFactor" : 0.5
            }
        },
        {
            "doubleSided" : true,
            "name" : "\u6750\u8d28.009",
            "pbrMetallicRoughness" : {
                "baseColorFactor" : [
                    0.800000011920929,
                    0.800000011920929,
                    0.800000011920929,
                    1
                ],
                "metallicFactor" : 0,
                "roughnessFactor" : 0.5
            }
        },
        {
            "doubleSided" : true,
            "name" : "\u6750\u8d28.008",
            "pbrMetallicRoughness" : {
                "baseColorFactor" : [
                    0.020059768110513687,
                    0.10194900631904602,
                    0.6618676781654358,
                    1
                ],
                "metallicFactor" : 0,
                "roughnessFactor" : 0.5
            }
        }
    ],
    "meshes" : [
        {
            "name" : "\u7403\u4f53.013",
            "primitives" : [
                {
                    "attributes" : {
                        "POSITION" : 0,
                        "NORMAL" : 1,
                        "TEXCOORD_0" : 2
                    },
                    "indices" : 3,
                    "material" : 0
                },
                {
                    "attributes" : {
                        "POSITION" : 4,
                        "NORMAL" : 5,
                        "TEXCOORD_0" : 6
                    },
                    "indices" : 7
                },
                {
                    "attributes" : {
                        "POSITION" : 8,
                        "NORMAL" : 9,
                        "TEXCOORD_0" : 10
                    },
                    "indices" : 11,
                    "material" : 1
                },
                {
                    "attributes" : {
                        "POSITION" : 12,
                        "NORMAL" : 13,
                        "TEXCOORD_0" : 14
                    },
                    "indices" : 15,
                    "material" : 2
                },
                {
                    "attributes" : {
                        "POSITION" : 16,
                        "NORMAL" : 17,
                        "TEXCOORD_0" : 18
                    },
                    "indices" : 19,
                    "material" : 3
                },
                {
                    "attributes" : {
                        "POSITION" : 20,
                        "NORMAL" : 21,
                        "TEXCOORD_0" : 22
                    },
                    "indices" : 23,
                    "material" : 4
                },
                {
                    "attributes" : {
                        "POSITION" : 24,
                        "NORMAL" : 25,
                        "TEXCOORD_0" : 26
                    },
                    "indices" : 27,
                    "material" : 5
                },
                {
                    "attributes" : {
                        "POSITION" : 28,
                        "NORMAL" : 29,
                        "TEXCOORD_0" : 30
                    },
                    "indices" : 31,
                    "material" : 6
                }
            ]
        }
    ],
    "accessors" : [
        {
            "bufferView" : 0,
            "componentType" : 5126,
            "count" : 8024,
            "max" : [
                0.8983712792396545,
                0.9975767135620117,
                0.9872307181358337
            ],
            "min" : [
                -0.9872304201126099,
                -0.9975767135620117,
                -0.9872304201126099
            ],
            "type" : "VEC3"
        },
        {
            "bufferView" : 1,
            "componentType" : 5126,
            "count" : 8024,
            "type" : "VEC3"
        },
        {
            "bufferView" : 2,
            "componentType" : 5126,
            "count" : 8024,
            "type" : "VEC2"
        },
        {
            "bufferView" : 3,
            "componentType" : 5123,
            "count" : 46080,
            "type" : "SCALAR"
        },
        {
            "bufferView" : 4,
            "componentType" : 5126,
            "count" : 480,
            "max" : [
                0.9743956923484802,
                0.39461827278137207,
                0.4263256788253784
            ],
            "min" : [
                0.8604787588119507,
                -0.3999027609825134,
                -0.42632555961608887
            ],
            "type" : "VEC3"
        },
        {
            "bufferView" : 5,
            "componentType" : 5126,
            "count" : 480,
            "type" : "VEC3"
        },
        {
            "bufferView" : 6,
            "componentType" : 5126,
            "count" : 480,
            "type" : "VEC2"
        },
        {
            "bufferView" : 7,
            "componentType" : 5123,
            "count" : 2304,
            "type" : "SCALAR"
        },
        {
            "bufferView" : 8,
            "componentType" : 5126,
            "count" : 81,
            "max" : [
                0.984595775604248,
                0.19294439256191254,
                0.2119297832250595
            ],
            "min" : [
                0.9495648741722107,
                -0.19099007546901703,
                -0.2119295597076416
            ],
            "type" : "VEC3"
        },
        {
            "bufferView" : 9,
            "componentType" : 5126,
            "count" : 81,
            "type" : "VEC3"
        },
        {
            "bufferView" : 10,
            "componentType" : 5126,
            "count" : 81,
            "type" : "VEC2"
        },
        {
            "bufferView" : 11,
            "componentType" : 5123,
            "count" : 384,
            "type" : "SCALAR"
        },
        {
            "bufferView" : 12,
            "componentType" : 5126,
            "count" : 14443,
            "max" : [
                0.9419769048690796,
                1.2017500400543213,
                2.495408296585083
            ],
            "min" : [
                -2.2676515579223633,
                -2.7008566856384277,
                -2.495408296585083
            ],
            "type" : "VEC3"
        },
        {
            "bufferView" : 13,
            "componentType" : 5126,
            "count" : 14443,
            "type" : "VEC3"
        },
        {
            "bufferView" : 14,
            "componentType" : 5126,
            "count" : 14443,
            "type" : "VEC2"
        },
        {
            "bufferView" : 15,
            "componentType" : 5123,
            "count" : 82374,
            "type" : "SCALAR"
        },
        {
            "bufferView" : 16,
            "componentType" : 5126,
            "count" : 222,
            "max" : [
                -0.6136863827705383,
                1.1282235383987427,
                1.4704043865203857
            ],
            "min" : [
                -0.834281325340271,
                0.676579475402832,
                -1.4421122074127197
            ],
            "type" : "VEC3"
        },
        {
            "bufferView" : 17,
            "componentType" : 5126,
            "count" : 222,
            "type" : "VEC3"
        },
        {
            "bufferView" : 18,
            "componentType" : 5126,
            "count" : 222,
            "type" : "VEC2"
        },
        {
            "bufferView" : 19,
            "componentType" : 5123,
            "count" : 1248,
            "type" : "SCALAR"
        },
        {
            "bufferView" : 20,
            "componentType" : 5126,
            "count" : 240,
            "max" : [
                0.9861862659454346,
                0.39461827278137207,
                0.4197019934654236
            ],
            "min" : [
                0.9092122912406921,
                -0.3999027609825134,
                -0.4329493045806885
            ],
            "type" : "VEC3"
        },
        {
            "bufferView" : 21,
            "componentType" : 5126,
            "count" : 240,
            "type" : "VEC3"
        },
        {
            "bufferView" : 22,
            "componentType" : 5126,
            "count" : 240,
            "type" : "VEC2"
        },
        {
            "bufferView" : 23,
            "componentType" : 5123,
            "count" : 1152,
            "type" : "SCALAR"
        },
        {
            "bufferView" : 24,
            "componentType" : 5126,
            "count" : 4717,
            "max" : [
                1.0344181060791016,
                0.2009497582912445,
                1.2020814418792725
            ],
            "min" : [
                -0.03302001953125,
                -1.4754563570022583,
                -1.0000542402267456
            ],
            "type" : "VEC3"
        },
        {
            "bufferView" : 25,
            "componentType" : 5126,
            "count" : 4717,
            "type" : "VEC3"
        },
        {
            "bufferView" : 26,
            "componentType" : 5126,
            "count" : 4717,
            "type" : "VEC2"
        },
        {
            "bufferView" : 27,
            "componentType" : 5123,
            "count" : 24384,
            "type" : "SCALAR"
        },
        {
            "bufferView" : 28,
            "componentType" : 5126,
            "count" : 1527,
            "max" : [
                0.791382908821106,
                1.9591288566589355,
                1.165979266166687
            ],
            "min" : [
                -1.9734246730804443,
                0.9561918377876282,
                -1.3366096019744873
            ],
            "type" : "VEC3"
        },
        {
            "bufferView" : 29,
            "componentType" : 5126,
            "count" : 1527,
            "type" : "VEC3"
        },
        {
            "bufferView" : 30,
            "componentType" : 5126,
            "count" : 1527,
            "type" : "VEC2"
        },
        {
            "bufferView" : 31,
            "componentType" : 5123,
            "count" : 8448,
            "type" : "SCALAR"
        }
    ],
    "bufferViews" : [
        {
            "buffer" : 0,
            "byteLength" : 96288,
            "byteOffset" : 0
        },
        {
            "buffer" : 0,
            "byteLength" : 96288,
            "byteOffset" : 96288
        },
        {
            "buffer" : 0,
            "byteLength" : 64192,
            "byteOffset" : 192576
        },
        {
            "buffer" : 0,
            "byteLength" : 92160,
            "byteOffset" : 256768
        },
        {
            "buffer" : 0,
            "byteLength" : 5760,
            "byteOffset" : 348928
        },
        {
            "buffer" : 0,
            "byteLength" : 5760,
            "byteOffset" : 354688
        },
        {
            "buffer" : 0,
            "byteLength" : 3840,
            "byteOffset" : 360448
        },
        {
            "buffer" : 0,
            "byteLength" : 4608,
            "byteOffset" : 364288
        },
        {
            "buffer" : 0,
            "byteLength" : 972,
            "byteOffset" : 368896
        },
        {
            "buffer" : 0,
            "byteLength" : 972,
            "byteOffset" : 369868
        },
        {
            "buffer" : 0,
            "byteLength" : 648,
            "byteOffset" : 370840
        },
        {
            "buffer" : 0,
            "byteLength" : 768,
            "byteOffset" : 371488
        },
        {
            "buffer" : 0,
            "byteLength" : 173316,
            "byteOffset" : 372256
        },
        {
            "buffer" : 0,
            "byteLength" : 173316,
            "byteOffset" : 545572
        },
        {
            "buffer" : 0,
            "byteLength" : 115544,
            "byteOffset" : 718888
        },
        {
            "buffer" : 0,
            "byteLength" : 164748,
            "byteOffset" : 834432
        },
        {
            "buffer" : 0,
            "byteLength" : 2664,
            "byteOffset" : 999180
        },
        {
            "buffer" : 0,
            "byteLength" : 2664,
            "byteOffset" : 1001844
        },
        {
            "buffer" : 0,
            "byteLength" : 1776,
            "byteOffset" : 1004508
        },
        {
            "buffer" : 0,
            "byteLength" : 2496,
            "byteOffset" : 1006284
        },
        {
            "buffer" : 0,
            "byteLength" : 2880,
            "byteOffset" : 1008780
        },
        {
            "buffer" : 0,
            "byteLength" : 2880,
            "byteOffset" : 1011660
        },
        {
            "buffer" : 0,
            "byteLength" : 1920,
            "byteOffset" : 1014540
        },
        {
            "buffer" : 0,
            "byteLength" : 2304,
            "byteOffset" : 1016460
        },
        {
            "buffer" : 0,
            "byteLength" : 56604,
            "byteOffset" : 1018764
        },
        {
            "buffer" : 0,
            "byteLength" : 56604,
            "byteOffset" : 1075368
        },
        {
            "buffer" : 0,
            "byteLength" : 37736,
            "byteOffset" : 1131972
        },
        {
            "buffer" : 0,
            "byteLength" : 48768,
            "byteOffset" : 1169708
        },
        {
            "buffer" : 0,
            "byteLength" : 18324,
            "byteOffset" : 1218476
        },
        {
            "buffer" : 0,
            "byteLength" : 18324,
            "byteOffset" : 1236800
        },
        {
            "buffer" : 0,
            "byteLength" : 12216,
            "byteOffset" : 1255124
        },
        {
            "buffer" : 0,
            "byteLength" : 16896,
            "byteOffset" : 1267340
        }
    ],
    "buffers" : [
        {
            "byteLength" : 1284236,
            "uri" : "data:application/octet-stream;base64,"
        }
    ]
}
